# xmcd
#
# Track frame offsets: 
#        150
#        14551
#        27626
#        39361
#        51296
#        69771
#        83075
#        100019
#        116719
#        132067
#        153678
#        174057
#        191648
#        209909
#        231738
#        255332
#        275010
#        291796
#        308531
#        330881
#
# Disc length: 4717 seconds
#
# Revision: 0
# Processed by: cddbd v1.5.2PL0 Copyright (c) Steve Scherf et al.
# Submitted via: ExactAudioCopy v0.99pb3
#
DISCID=18126b14
DTITLE=Stevie Wonder - Stevie Wonder Number Ones
DYEAR=1900
DGENRE=Vocal
TTITLE0=Fingertips, Pt. 2
TTITLE1=Uptight (Everything's Alright)
TTITLE2=I Was Made To Love Her
TTITLE3=Signed, Sealed, Delivered I'm Yours
TTITLE4=Superstition
TTITLE5=You Are The Sunshine Of My Life
TTITLE6=Higher Ground
TTITLE7=Living For The City
TTITLE8=You Haven't Done Nothing
TTITLE9=Boogie On Reggae Woman
TTITLE10=I Wish
TTITLE11=Sir Duke
TTITLE12=Send One Your Love
TTITLE13=Master Blaster (Jammin')
TTITLE14=That Girl
TTITLE15=I Just Called To Say I Love You
TTITLE16=Part-Time Lover
TTITLE17=Overjoyed
TTITLE18=Skeletons
TTITLE19=So What The Fuss
EXTD=
EXTT0=
EXTT1=
EXTT2=
EXTT3=
EXTT4=
EXTT5=
EXTT6=
EXTT7=
EXTT8=
EXTT9=
EXTT10=
EXTT11=
EXTT12=
EXTT13=
EXTT14=
EXTT15=
EXTT16=
EXTT17=
EXTT18=
EXTT19=
PLAYORDER=
